<svg width="490" height="302" viewBox="0 0 490 302" fill="none" xmlns="http://www.w3.org/2000/svg">
<g filter="url(#filter0_i_936_189)">
<rect width="490" height="302" rx="12" fill="#1D1D1D"/>
<rect x="24" y="24" width="34" height="31" rx="15.5" fill="url(#paint0_linear_936_189)" fill-opacity="0.04"/>
<path d="M48 35.1566L38.4 45L34 40.4884L35.128 39.3318L38.4 42.6786L46.872 34L48 35.1566Z" fill="#2EFF2E"/>
<rect x="71" y="31.5" width="395" height="16" rx="8" fill="#515151"/>
<rect x="24" y="65" width="34" height="31" rx="15.5" fill="url(#paint1_linear_936_189)" fill-opacity="0.04"/>
<path d="M48 76.1566L38.4 86L34 81.4884L35.128 80.3318L38.4 83.6786L46.872 75L48 76.1566Z" fill="#2EFF2E"/>
<rect x="71" y="72.5" width="268" height="16" rx="8" fill="#515151"/>
<rect x="24" y="106" width="34" height="31" rx="15.5" fill="url(#paint2_linear_936_189)" fill-opacity="0.04"/>
<path d="M48 117.157L38.4 127L34 122.488L35.128 121.332L38.4 124.679L46.872 116L48 117.157Z" fill="#2EFF2E"/>
<rect x="71" y="113.5" width="217" height="16" rx="8" fill="#515151"/>
<rect x="24" y="147" width="34" height="31" rx="15.5" fill="url(#paint3_linear_936_189)" fill-opacity="0.04"/>
<path d="M48 158.157L38.4 168L34 163.488L35.128 162.332L38.4 165.679L46.872 157L48 158.157Z" fill="#2EFF2E"/>
<rect x="71" y="154.5" width="217" height="16" rx="8" fill="#515151"/>
<rect x="24" y="188" width="34" height="31" rx="15.5" fill="url(#paint4_linear_936_189)" fill-opacity="0.04"/>
<path d="M48 199.157L38.4 209L34 204.488L35.128 203.332L38.4 206.679L46.872 198L48 199.157Z" fill="#2EFF2E"/>
<rect x="71" y="195.5" width="217" height="16" rx="8" fill="#515151"/>
<rect x="24" y="229" width="34" height="31" rx="15.5" fill="url(#paint5_linear_936_189)" fill-opacity="0.04"/>
<path d="M48 240.157L38.4 250L34 245.488L35.128 244.332L38.4 247.679L46.872 239L48 240.157Z" fill="#2EFF2E"/>
<rect x="71" y="236.5" width="217" height="16" rx="8" fill="#515151"/>
<rect x="24" y="270" width="34" height="31" rx="15.5" fill="url(#paint6_linear_936_189)" fill-opacity="0.04"/>
<path d="M48 281.157L38.4 291L34 286.488L35.128 285.332L38.4 288.679L46.872 280L48 281.157Z" fill="#2EFF2E"/>
<rect x="71" y="277.5" width="217" height="16" rx="8" fill="#515151"/>
</g>
<defs>
<filter id="filter0_i_936_189" x="0" y="-82" width="490" height="384" filterUnits="userSpaceOnUse" color-interpolation-filters="sRGB">
<feFlood flood-opacity="0" result="BackgroundImageFix"/>
<feBlend mode="normal" in="SourceGraphic" in2="BackgroundImageFix" result="shape"/>
<feColorMatrix in="SourceAlpha" type="matrix" values="0 0 0 0 0 0 0 0 0 0 0 0 0 0 0 0 0 0 127 0" result="hardAlpha"/>
<feOffset dy="-82"/>
<feGaussianBlur stdDeviation="60"/>
<feComposite in2="hardAlpha" operator="arithmetic" k2="-1" k3="1"/>
<feColorMatrix type="matrix" values="0 0 0 0 0 0 0 0 0 0 0 0 0 0 0 0 0 0 1 0"/>
<feBlend mode="normal" in2="shape" result="effect1_innerShadow_936_189"/>
</filter>
<linearGradient id="paint0_linear_936_189" x1="24" y1="39.5" x2="58" y2="39.5" gradientUnits="userSpaceOnUse">
<stop stop-color="#D1D1D1"/>
<stop offset="1" stop-color="#F1CD61"/>
</linearGradient>
<linearGradient id="paint1_linear_936_189" x1="24" y1="80.5" x2="58" y2="80.5" gradientUnits="userSpaceOnUse">
<stop stop-color="#D1D1D1"/>
<stop offset="1" stop-color="#F1CD61"/>
</linearGradient>
<linearGradient id="paint2_linear_936_189" x1="24" y1="121.5" x2="58" y2="121.5" gradientUnits="userSpaceOnUse">
<stop stop-color="#D1D1D1"/>
<stop offset="1" stop-color="#F1CD61"/>
</linearGradient>
<linearGradient id="paint3_linear_936_189" x1="24" y1="162.5" x2="58" y2="162.5" gradientUnits="userSpaceOnUse">
<stop stop-color="#D1D1D1"/>
<stop offset="1" stop-color="#F1CD61"/>
</linearGradient>
<linearGradient id="paint4_linear_936_189" x1="24" y1="203.5" x2="58" y2="203.5" gradientUnits="userSpaceOnUse">
<stop stop-color="#D1D1D1"/>
<stop offset="1" stop-color="#F1CD61"/>
</linearGradient>
<linearGradient id="paint5_linear_936_189" x1="24" y1="244.5" x2="58" y2="244.5" gradientUnits="userSpaceOnUse">
<stop stop-color="#D1D1D1"/>
<stop offset="1" stop-color="#F1CD61"/>
</linearGradient>
<linearGradient id="paint6_linear_936_189" x1="24" y1="285.5" x2="58" y2="285.5" gradientUnits="userSpaceOnUse">
<stop stop-color="#D1D1D1"/>
<stop offset="1" stop-color="#F1CD61"/>
</linearGradient>
</defs>
</svg>
